# xmcd
#
# Track frame offsets:
#	150
#	16505
#	30337
#	43245
#	54805
#	69817
#	86290
#	99317
#	114192
#	125835
#	142047
#	159040
#	174975
#	187195
#	199437
#
# Disc length: 2907
#
# Revision: 3
# Processed by: cddbd v1.5.1PL0 Copyright (c) Steve Scherf et al.
# Submitted via: CDValet v3.31 - Copyright (c) 1997 Greg Leichner
# Normalized: r1:DSETVAR1,TDELIM( - ),TSWAP
#
DISCID=b50b590f
DTITLE=Various Artist - *Country's Greatest CD4*
DYEAR=1900
DGENRE=
TTITLE0=Reba McEntire - Love Will Find It's Way To You
TTITLE1=Patty Loveless - If My Heart Had Windows
TTITLE2=Lee Greenwood - You've Got A Good Love Comin'
TTITLE3=Waylon Jennings - My Rough And Rowdy Days
TTITLE4=Glen Campbell - I Have You
TTITLE5=Steve Wariner - Baby I'm Yours
TTITLE6=Lee Greenwood - Touch And Go Crazy
TTITLE7=Nanci Griffith - I Knew Love
TTITLE8=George Strait - The Fireman
TTITLE9=Barbara Mandrell - Crossword Puzzle
TTITLE10=Razzy Bailey - Touchy Situation
TTITLE11=Nicolette Larson - When You Get A Little Lonely
TTITLE12=Waylon Jennings - Working Without A Net
TTITLE13=Loretta Lynn - Heart Don't Do This To Me
TTITLE14=Don Williams - Maggie's Dream
EXTD=
EXTT0=
EXTT1=
EXTT2=
EXTT3=
EXTT4=
EXTT5=
EXTT6=
EXTT7=
EXTT8=
EXTT9=
EXTT10=
EXTT11=
EXTT12=
EXTT13=
EXTT14=
PLAYORDER=
